# xmcd
#
# Track frame offsets: 
#        150
#        674
#        18701
#        36302
#        52725
#        70789
#        90690
#        108336
#        125487
#        141200
#        157286
#        174078
#        196831
#        215996
#        228193
#        248477
#        266002
#        282650
#        300068
#        316116
#
# Disc length: 4429 seconds
#
# Revision: 0
# Processed by: cddbd v1.5.2PL0 Copyright (c) Steve Scherf et al.
# Submitted via: ExactAudioCopy v0.99pb4
#
DISCID=0f114b14
DTITLE=Various Artist - prevue promo 1068A-2
DYEAR=2001
DGENRE=pop
TTITLE0=blank - data
TTITLE1=Nicole - I'm Lookin'
TTITLE2=KeKe Wyatt - Used To Love
TTITLE3=Damozel - Everyday's A Party
TTITLE4=Rockell - What U Did 2 Me(Linus Radio Mix)
TTITLE5=Destiny's Child feat.  Da Brat - Survivor(Extenten Remix Versi
TTITLE5=on)
TTITLE6=Jagged Edge co-starring Nelly - Where The Party At(LP Mix)
TTITLE7=Case - Missing You(Mike Rizzo Remix)
TTITLE8=Jessica Simpson - Irresistible(Hex Hector Remix)
TTITLE9=Jessica Simpson feat. Lil' Bow Wow - Irresistible(JD Remix)
TTITLE10=Rhona - Satisfied(Hex Hector Radio Remix)
TTITLE11=Jimmy Smith feat. Taj Mahal - Strut
TTITLE12=Cash Brothers - Night Shift Guru
TTITLE13=Greg Trooper - Once And For All
TTITLE14=Willie Nelson - Rainbow Connection(Originally from "The Muppe
TTITLE14=t Movie")
TTITLE15=Robbie Williams and Queen - We Are The Champions( Movie "A Kn
TTITLE15=ights Tale")
TTITLE16=Wellwater Conspiracy - Felicity's Surprise
TTITLE17=Grand Theft Audio - As Good As It Gets
TTITLE18=Stereo MC's - Deep Down and Dirty
TTITLE19=Marilyn Manson - Nobodies, The
EXTD=
EXTT0=
EXTT1=
EXTT2=
EXTT3=
EXTT4=
EXTT5=
EXTT6=
EXTT7=
EXTT8=
EXTT9=
EXTT10=
EXTT11=
EXTT12=
EXTT13=
EXTT14=
EXTT15=
EXTT16=
EXTT17=
EXTT18=
EXTT19=
PLAYORDER=
